<svg width="24" height="24" viewBox="0 0 24 24" fill="none" xmlns="http://www.w3.org/2000/svg">
  <path d="M13.9194 21.1096H10.0794C6.23938 21.1096 3.10938 17.9796 3.10938 14.1396V11.8596C3.10938 8.01965 6.23938 4.88965 10.0794 4.88965H13.9194C17.7594 4.88965 20.8894 8.01965 20.8894 11.8596V14.1396C20.8894 17.9796 17.7594 21.1096 13.9194 21.1096ZM10.0794 6.19965C6.95938 6.19965 4.40937 8.73965 4.40937 11.8696V14.1496C4.40937 17.2696 6.94938 19.8196 10.0794 19.8196H13.9194C17.0394 19.8196 19.5894 17.2796 19.5894 14.1496V11.8696C19.5894 8.74965 17.0494 6.19965 13.9194 6.19965H10.0794Z" fill="#767680"/>
  <path d="M14.2701 15.9892C14.1001 15.9892 13.9401 15.9292 13.8101 15.7992L11.7001 13.6892C11.4601 13.4492 11.3301 13.1292 11.3301 12.7892V8.34922C11.3301 7.98922 11.6201 7.69922 11.9801 7.69922C12.3401 7.69922 12.6301 7.98922 12.6301 8.34922V12.7892L14.7401 14.8792C14.9901 15.1292 14.9901 15.5492 14.7401 15.7992C14.6101 15.9292 14.4501 15.9892 14.2801 15.9892H14.2701Z" fill="#767680"/>
  <path d="M13.86 4.18965H10.15C9.79 4.18965 9.5 3.89965 9.5 3.53965C9.5 3.17965 9.79 2.88965 10.15 2.88965H13.86C14.22 2.88965 14.51 3.17965 14.51 3.53965C14.51 3.89965 14.22 4.18965 13.86 4.18965Z" fill="#767680"/>
</svg>
