<svg width="24" height="24" viewBox="0 0 24 24" fill="none" xmlns="http://www.w3.org/2000/svg">
<g clip-path="url(#clip0_53462_109915)">
<path d="M19.5562 21.5962H14.5185C14.3043 21.6026 14.0962 21.5244 13.9392 21.3786C13.7822 21.2328 13.6888 21.0311 13.6792 20.817V15.9592C13.6603 15.5308 13.4735 15.1271 13.1593 14.8353C12.8451 14.5435 12.4286 14.3872 12 14.4C11.5714 14.3872 11.1549 14.5435 10.8407 14.8353C10.5264 15.1271 10.3397 15.5308 10.3207 15.9592V20.817C10.3112 21.0311 10.2178 21.2328 10.0608 21.3786C9.90375 21.5244 9.69568 21.6026 9.48149 21.5962H4.44374C4.22943 21.6026 4.02125 21.5243 3.8642 21.3783C3.70715 21.2323 3.61386 21.0304 3.60449 20.8162V9.43799H20.3955V20.8162C20.3861 21.0304 20.2928 21.2323 20.1358 21.3783C19.9787 21.5243 19.7706 21.6026 19.5562 21.5962ZM12 12.6007C12.905 12.5904 13.7776 12.9372 14.4288 13.5658C15.0799 14.1945 15.457 15.0544 15.4785 15.9592V19.797H18.597V10.488H5.40449V19.797H8.52224V15.9592C8.54369 15.0545 8.92074 14.1947 9.5717 13.5661C10.2227 12.9375 11.0951 12.5906 12 12.6007Z" fill="#ACAAAF"/>
<path d="M21.6093 10.9491H2.38907C2.25192 10.9517 2.11594 10.9235 1.9911 10.8666C1.86626 10.8098 1.75571 10.7257 1.66757 10.6206C1.59832 10.5373 1.54886 10.4393 1.52288 10.3341C1.4969 10.2289 1.49509 10.1192 1.51757 10.0131L2.96432 3.05314C3.01523 2.86207 3.1296 2.69399 3.28865 2.5765C3.4477 2.45902 3.64198 2.39912 3.83957 2.40664H20.1596C20.3573 2.39916 20.5516 2.45917 20.7107 2.5768C20.8697 2.69443 20.9841 2.86268 21.0348 3.05389L22.4853 10.0146C22.5078 10.1207 22.506 10.2304 22.48 10.3356C22.454 10.4408 22.4046 10.5388 22.3353 10.6221C22.2465 10.7275 22.1352 10.8116 22.0095 10.8682C21.8839 10.9248 21.7471 10.9525 21.6093 10.9491ZM4.52357 4.15564L3.47357 9.19939H20.5271L19.4771 4.15564H4.52357Z" fill="#3A4BA8"/>
</g>
<defs>
<clipPath id="clip0_53462_109915">
<rect width="24" height="24" fill="white"/>
</clipPath>
</defs>
</svg>
