<svg width="20" height="20" viewBox="0 0 20 20" fill="none" xmlns="http://www.w3.org/2000/svg">
  <path d="M7.16693 4.31641H12.8253C15.0919 4.31641 16.9336 6.15807 16.9336 8.42474H3.05859C3.05859 6.15807 4.90026 4.31641 7.16693 4.31641Z" fill="#E0E0DF"/>
  <path d="M12.8341 3.77539H7.32578C4.75911 3.77539 2.67578 5.85872 2.67578 8.42539V11.5837C2.67578 14.1504 4.75911 16.2337 7.32578 16.2337H12.8341C15.4008 16.2337 17.4841 14.1504 17.4841 11.5837V8.42539C17.4841 5.85872 15.4008 3.77539 12.8341 3.77539ZM7.32578 4.85872H12.8341C14.6424 4.85872 16.1258 6.21706 16.3508 7.96706H3.80078C4.02578 6.21706 5.50911 4.85872 7.31745 4.85872H7.32578ZM12.8341 15.1504H7.32578C5.35911 15.1504 3.75911 13.5504 3.75911 11.5837V9.05039H16.4008V11.5837C16.4008 13.5504 14.8008 15.1504 12.8341 15.1504Z" fill="#3A4BA8"/>
  <path d="M15.2682 11.5257H12.7682C12.4682 11.5257 12.2266 11.284 12.2266 10.984C12.2266 10.684 12.4682 10.4424 12.7682 10.4424H15.2682C15.5682 10.4424 15.8099 10.684 15.8099 10.984C15.8099 11.284 15.5682 11.5257 15.2682 11.5257Z" fill="#3A4BA8"/>
</svg>
