<svg width="17" height="16" viewBox="0 0 17 16" fill="none" xmlns="http://www.w3.org/2000/svg">
<path d="M12.5604 2.25821e-06V3.39826H4.2368C4.03223 3.39854 3.83615 3.47828 3.69167 3.61995C3.54718 3.76162 3.46612 3.95362 3.46631 4.15374V12.313H1.70982e-06V6.69774C-0.00030052 6.49935 0.0394669 6.30286 0.11702 6.11955C0.194573 5.93624 0.308383 5.76972 0.451913 5.62957L5.73725 0.446959C5.88017 0.305081 6.05056 0.192485 6.23847 0.115744C6.42637 0.039003 6.62803 -0.000343431 6.83165 2.25821e-06H12.5604Z" fill="#2F3BBD"/>
<path d="M3.46875 15.7125V12.3143H11.7923C11.9969 12.314 12.193 12.2342 12.3374 12.0926C12.4819 11.9509 12.563 11.7589 12.5628 11.5588V3.39844H16.0287V9.01305C16.0291 9.21144 15.9893 9.40793 15.9117 9.59124C15.8342 9.77455 15.7204 9.94107 15.5768 10.0812L10.2919 15.2631C10.149 15.4057 9.97839 15.519 9.79015 15.5962C9.60191 15.6734 9.3998 15.7131 9.19568 15.7129L3.46875 15.7125Z" fill="#2F3BBD"/>
</svg>
